<?xml version="1.0" encoding="UTF-8" standalone="no"?>
<!-- Created with Inkscape (http://www.inkscape.org/) -->

<svg
   version="1.1"
   id="svg1"
   width="400"
   height="400"
   viewBox="0 0 400 400"
   sodipodi:docname="koala.svg"
   inkscape:version="1.3.2 (091e20e, 2023-11-25, custom)"
   xmlns:inkscape="http://www.inkscape.org/namespaces/inkscape"
   xmlns:sodipodi="http://sodipodi.sourceforge.net/DTD/sodipodi-0.dtd"
   xmlns="http://www.w3.org/2000/svg"
   xmlns:svg="http://www.w3.org/2000/svg">
  <defs
     id="defs1" />
  <sodipodi:namedview
     id="namedview1"
     pagecolor="#505050"
     bordercolor="#ffffff"
     borderopacity="1"
     inkscape:showpageshadow="0"
     inkscape:pageopacity="0"
     inkscape:pagecheckerboard="1"
     inkscape:deskcolor="#505050"
     inkscape:zoom="3.0525"
     inkscape:cx="93.202293"
     inkscape:cy="188.53399"
     inkscape:window-width="3440"
     inkscape:window-height="1417"
     inkscape:window-x="1072"
     inkscape:window-y="1432"
     inkscape:window-maximized="1"
     inkscape:current-layer="g1" />
  <g
     inkscape:groupmode="layer"
     inkscape:label="Image"
     id="g1">
    <path
       style="fill:#000000"
       d="m 186.29302,399.38231 -2.86622,-2.00757 0.45299,-21.2941 c 0.24915,-11.71175 -0.12201,-21.86662 -0.19957,-23.78954 l -0.10241,-2.53886 -8.11438,-3.03308 c -18.11415,-6.77089 -29.39957,-20.74295 -34.42412,-40.3312 l -2.13708,-8.3314 0.71496,-10.46774 0.71496,-10.46774 4.10818,-8.34491 4.10819,-8.34491 5.08035,-3.52068 c 9.03652,-6.26232 9.66905,-5.38435 4.29997,5.96857 -2.18371,4.61744 -4.95341,12.81391 -6.1549,18.21437 l -2.18452,9.81901 0.53854,12.31334 0.53854,12.31335 3.70715,7.57713 3.70715,7.57713 5.57587,4.5155 c 5.78927,4.68831 9.53834,7.65141 14.97066,9.49757 l 4.83458,1.64302 0.35573,-18.40203 c 0.14389,-7.44341 -1.11782,-28.71719 -1.25959,-30.91588 l -0.79632,-12.35005 -5.44509,16.05685 c -1.97923,5.83648 -3.89273,13.19829 -4.3978,16.31111 -2.02587,12.48559 -5.08811,6.65223 -5.07088,-9.65968 l 0.0113,-10.66667 2.93112,-10.66666 c 1.61212,-5.86667 3.82862,-11.97486 4.85333,-13.61976 5.74833,-9.22741 1.54474,-15.77269 -7.5767,-52.50238 l -1.52037,-6.12214 -9.00136,-4.24525 c -18.00921,-8.49358 -33.91525,-27.11141 -37.92171,-44.38694 l -1.42039,-8.62173 0.66152,-7.62283 c 1.07942,-12.43843 6.06387,-18.21231 7.96486,-18.21231 0.42492,0 0.76444,5.55 0.75447,12.33334 l -0.0181,12.33333 3.88818,9.32497 c 6.00198,14.39448 27.73744,40.82719 30.93918,37.62545 0.93238,-0.93238 -9.85491,-27.9168 -23.83251,-59.61709 C 112.70027,86.341364 105.43361,63.446124 99.99593,24.366732 l -2.09039,-15.0231578 1.6509,-2.6435085 1.6509,-2.6435085 h 3.53662 3.53662 l 0.979,2.3333333 c 0.53845,1.2833333 1.21671,6.5333325 1.50725,11.6666665 0.92525,16.347286 7.91925,39.338839 36.90947,121.333333 6.2227,17.6 13.91851,40.04245 17.1018,49.87212 l 5.78778,17.87212 4,1.62401 c 2.2,0.89321 8.12921,2.38364 13.17602,3.31207 l 9.17601,1.68805 12.82399,-0.77261 c 16.21772,-0.97707 29.66556,-4.78193 44.48146,-12.58536 11.81235,-6.22148 16.47579,-6.87554 9.71384,-1.36241 -21.05175,17.16387 -55.91466,24.7017 -85.03798,18.38638 -2.75,-0.59634 -5,-0.76668 -5,-0.37854 0,0.63729 8.66961,38.57976 9.84294,42.30781 0.26873,0.85388 5.34096,-8.13033 11.0714,-13.75869 l 10.41899,-10.23339 9.33333,-4.81472 c 12.58819,-6.49377 28.33578,-8.89081 38.08368,-5.79695 5.51833,1.75145 2.1436,3.30678 -7.17501,3.30678 -23.72263,0 -41.41721,12.0071 -53.84943,36.54089 l -3.33441,6.58016 0.75185,4.10614 c 5.27639,28.81611 8.86329,51.62717 9.6371,61.28762 l 0.94906,11.84814 10.96878,-0.84313 c 56.80269,-4.3662 94.11201,-45.31066 94.3291,-103.51982 l 0.0522,-14 -2.94986,-10.66667 c -4.87542,-17.62944 -14.12636,-33.09578 -32.67867,-54.63434 l -9.2156,-10.69899 2.26502,-0.44062 c 4.74588,-0.92322 22.61019,13.58509 32.63003,26.50012 10.01218,12.90516 19.33766,36.44394 21.6064,54.53746 l 1.35487,10.8053 -1.37286,13.37817 c -2.54659,24.81587 -11.22408,44.13986 -27.43092,61.08619 l -9.69118,10.13338 -10.46507,6.27748 c -17.48068,10.4858 -51.84419,15.99348 -60.88497,15.92968 l -8.64326,-0.061 -0.12596,19.52053 c -0.0651,10.08372 -0.56107,20.32667 -1.0044,22.76296 l -0.80606,4.42961 -3.25368,1.23705 c -4.27032,1.62357 -4.65422,1.58669 -8.01961,-0.77053 z m 18.79166,-261.90327 c -4.34991,-1.85359 -7.06824,-13.85535 -5.28776,-23.34614 l 0.88855,-4.73637 3.97735,-2.05677 3.97735,-2.05677 4.66214,0.87462 c 2.56418,0.48105 5.54746,2.1386 6.62952,3.68346 l 1.96739,2.80884 v 9.55561 9.55561 l -2.33334,2.85493 c -2.61207,3.19598 -10.18581,4.69333 -14.4812,2.86298 z m 49.14787,-14.30552 c -1.99376,-0.8045 -2.23027,-3.11696 -0.3188,-3.11696 29.74918,0 38.94837,-63.915497 10.97983,-76.287312 l -5.96155,-2.637076 -5.76543,0.864581 c -3.17099,0.475519 -7.93002,2.333506 -10.57562,4.128859 -6.93228,4.70437 -9.0225,2.545029 -3.0069,-3.106333 14.3809,-13.510153 39.80374,-7.874201 48.96647,10.855305 16.57077,33.872263 -6.52653,80.513036 -34.318,69.298936 z m -68.33333,-1.42215 c -6.559,-2.49678 -4.90516,-16.36148 1.95167,-16.36148 1.75515,0 4.0956,0.90442 5.201,2.00982 l 2.00982,2.00982 -0.74316,4.99018 c -0.40873,2.7446 -1.68497,5.74018 -2.83608,6.65685 -2.2628,1.80194 -2.57333,1.84058 -5.58325,0.69481 z m 45.38024,-1.60716 c -0.75913,-1.41845 -1.38024,-5.00702 -1.38024,-7.9746 v -5.39558 l 3.20914,-0.80545 c 1.76503,-0.44299 4.46503,-0.13331 6,0.68818 l 2.79086,1.49362 v 6.4771 6.47711 l -2.10905,0.80931 c -3.90035,1.49671 -7.12099,0.82702 -8.51071,-1.76969 z M 127.08496,65.056557 c -1.15751,-13.071491 7.3582,-28.33465 19.38997,-34.753661 l 5.42429,-2.893883 12.28665,-2.057102 11.71335,2.037902 5.94641,3.333333 c 6.28685,3.524169 16.03555,15.066936 16.04687,19 0.009,3.209986 -0.93114,2.956811 -6.19982,-1.669147 -2.50721,-2.201364 -7.68642,-5.626697 -11.50935,-7.611851 l -6.95078,-3.609294 -9.25143,-1.774722 -9.41524,1.665082 -5.09393,2.529829 c -7.49221,3.72091 -12.89322,9.746715 -17.1526,19.136847 -3.77045,8.312238 -4.95506,9.820999 -5.23439,6.666667 z"
       id="path1"
       sodipodi:nodetypes="ccsscsscccccssscccccsscsscssscssscsscssscsssscccccsssscsscssssssscsssscsscsscsscssscsscsscsscsscsscccsscccssssscsssssssscssssscsscccsssscccscsscccsss" />
  </g>
</svg>
